<svg width="65" height="48" viewBox="0 0 65 48" fill="none" xmlns="http://www.w3.org/2000/svg">
<path d="M12.0233 10.729L15.0672 13.7662L12.0233 16.8034L11.8765 16.9499V17.1574V43.1096H2.69859C1.48585 43.1096 0.5 44.0932 0.5 45.3048C0.5 46.5165 1.48677 47.5 2.69859 47.5H61.3014C62.516 47.5 63.5 46.5161 63.5 45.3048C63.5 44.0931 62.514 43.1096 61.3006 43.1096H59.7325L59.7337 43.1104H52.158C51.2109 36.2446 46.121 26.5339 38.7147 17.5337L38.7146 17.5336C34.3497 12.2323 29.8788 7.98483 25.6673 5.0584C21.4669 2.13964 17.474 0.5 14.0758 0.5H12.3765H11.8765V1V10.375V10.5825L12.0233 10.729ZM20.9371 13.4124L16.2739 8.7651V5.20265C18.7173 5.84494 21.6479 7.45678 24.7978 9.89002C28.2005 12.5185 31.8228 16.0772 35.3141 20.3196L35.3141 20.3196C38.7589 24.5045 41.6863 28.8748 43.8526 32.9407C45.8848 36.755 47.2332 40.2755 47.7245 43.1098L16.2739 43.1104V18.7681L20.9371 14.1207L21.2924 13.7666L20.9371 13.4124Z" fill="#174460" stroke="#174460"/>
</svg>
