<svg width="34" height="40" viewBox="0 0 34 40" fill="none" xmlns="http://www.w3.org/2000/svg">
<path id="Vector" d="M30.4649 18.5215L33.1237 14.5978C34.4976 12.5708 33.0586 9.84127 30.6091 9.84127H23.338L23.3383 6.87816C23.3383 5.1807 21.9768 3.81909 20.2954 3.81909H6.45187V2.25741C6.45187 1.37293 5.73471 0.655823 4.85028 0.655823C3.9658 0.655823 3.24869 1.37298 3.24869 2.25741V35.8899H1.64676C0.762277 35.8899 0.045166 36.6071 0.045166 37.4915C0.045166 38.376 0.76232 39.0931 1.64676 39.0931H8.05449C8.93896 39.0931 9.65608 38.3759 9.65608 37.4915C9.65608 36.607 8.93892 35.8899 8.05449 35.8899H6.45187V21.1958H14.8498V24.1587C14.8498 25.8404 16.2271 27.2177 17.9089 27.2177H30.6092C33.0181 27.2177 34.5138 24.4956 33.1237 22.4452L30.4649 18.5215Z" fill="#BF4040"/>
</svg>
