<svg width="84" height="44" viewBox="0 0 84 44" fill="none" xmlns="http://www.w3.org/2000/svg">
<path d="M73.7452 7.62644C73.383 7.82869 72.9979 7.98717 72.5985 8.09833C72.2026 8.20591 71.796 8.27117 71.3865 8.29197C70.5467 8.32639 69.7069 8.2267 68.8986 7.99649C68.3464 7.84302 67.8049 7.65154 67.2799 7.42276C63.497 5.89664 61.2773 2.47436 57.6605 0.457582C54.442 -1.39268 53.831 4.08356 54.2382 6.49745H54.2375C54.586 8.2373 55.4236 9.84161 56.6514 11.1224C57.5263 11.9543 58.5095 12.6635 59.5745 13.2315C60.1016 13.6202 60.6194 14.0175 61.11 14.4435C63.5613 16.5434 65.2631 19.0684 62.8677 22.204L62.867 22.2033C62.4131 22.7397 61.9311 23.2518 61.4241 23.7387C61.1652 23.979 60.897 24.22 60.6194 24.4416C56.6421 27.4385 50.8058 26.6247 46.5237 24.775C46.0123 24.4953 45.5182 24.187 45.0434 23.8499C44.5744 23.5135 44.1269 23.1492 43.7023 22.7584C43.3904 22.3596 43.158 21.9042 43.0174 21.4173C42.8833 21.0092 42.8518 20.5739 42.9249 20.1501C43.1379 18.9567 44.1642 17.9669 45.1912 17.024C45.6445 16.608 46.1164 16.2007 46.4864 15.7941C46.7173 15.4147 47.1247 15.0174 47.3283 14.61V14.6093C47.5335 14.1998 47.5801 13.7286 47.4574 13.2869C47.347 12.8458 46.9827 12.5138 46.5323 12.4449C46.1386 12.3811 45.7384 12.3589 45.3396 12.3804L44.1929 12.4356L44.1922 12.4363C43.6199 12.508 43.0519 12.6099 42.4904 12.7411C41.9998 12.8523 41.4914 12.9907 40.9736 13.1392C40.4558 13.2869 39.9287 13.4626 39.4008 13.6383C34.545 15.1458 30.5209 18.9754 25.0174 18.4483H22.5109L20.6607 18.2819C16.9609 17.9764 13.4181 17.8932 10.1714 19.9005C9.6902 20.0669 9.16308 20.1967 8.608 20.3258C4.75107 21.251 -0.780429 21.6949 0.634528 26.8004H0.635963C0.824569 27.6158 1.21616 28.3696 1.77338 28.9927C2.30768 29.5894 2.9316 30.0979 3.62364 30.5002C5.92003 31.9008 8.54615 32.6703 11.2356 32.7299C12.1608 32.7945 13.0859 32.7852 14.0103 32.7299H15.2961C15.7329 32.778 16.1653 32.8547 16.5913 32.9609C17.0037 33.0634 17.406 33.2025 17.794 33.3775C18.2674 33.5798 18.6948 33.8752 19.0519 34.2467C20.3471 35.5692 19.5425 38.3813 17.7295 38.1868C17.1909 38.1782 16.6566 38.0843 16.1474 37.9093C15.7128 37.687 15.2223 37.4281 14.7504 37.1419C12.1608 35.8747 8.7019 32.0731 5.92651 34.487C5.5206 34.7767 5.24808 35.2171 5.17133 35.7105C5.0946 36.2032 5.2201 36.7059 5.51987 37.1046C8.13755 39.8793 11.9945 39.8793 15.0653 41.4522L16.7578 41.924C21.2995 43.182 26.0078 44.3473 30.7245 43.7184C31.2853 43.6632 31.8469 43.5922 32.4077 43.5054H32.4084C33.8083 43.2737 35.1954 42.9653 36.5615 42.5809L37.9305 42.1829C41.5314 41.2793 45.0562 40.0982 48.4751 38.6495L50.0291 38.0392L51.5832 37.4195C55.681 34.7093 59.7043 32.2954 63.0714 28.9562C63.4415 28.5862 63.7993 28.2132 64.1443 27.8367C64.4893 27.4602 64.8163 27.0565 65.1239 26.6247C65.4754 26.1715 65.8081 25.6996 66.1136 25.237C66.4191 24.7744 66.6128 24.1268 66.8903 23.5997C67.1679 23.0726 67.4734 22.5634 67.8155 22.0736C68.1576 21.5831 68.4817 21.1484 68.8425 20.6586C69.9175 19.3068 71.1611 18.0977 72.5422 17.0606C73.0048 16.7149 73.4796 16.3886 73.9665 16.0802L75.0674 15.414C79.4334 13.7215 83.2531 9.86393 83.6605 5.23957C83.5995 4.49157 83.0408 3.8791 82.3007 3.75073C81.8324 3.59152 81.329 3.56929 80.8485 3.68619C78.0738 4.09281 76.4178 6.30387 74.2721 7.38597C74.0886 7.44693 73.9121 7.52797 73.745 7.62622L73.7452 7.62644ZM14.5472 28.2257C14.1033 28.1425 12.3362 28.2257 12.0959 27.1894C12.2996 25.9774 13.7145 25.7923 14.5098 25.8848V25.8856C15.1387 25.9379 15.6451 26.4241 15.7218 27.051C15.6924 27.6928 15.171 28.202 14.5284 28.2164L14.5472 28.2257Z" fill="white"/>
</svg>
